<svg width="300" height="100" viewBox="0 0 300 100" fill="none" xmlns="http://www.w3.org/2000/svg">
<path fill-rule="evenodd" clip-rule="evenodd" d="M132.147 32.329C129.263 32.329 125.839 32.9406 122.099 37.277V25.1414C122.099 22.0758 119.611 19.582 116.552 19.582C113.494 19.582 111.005 22.0758 111.005 25.1414V64.7169C111.005 67.7825 113.494 70.2763 116.552 70.2763C119.611 70.2763 122.099 67.7825 122.099 64.7169V49.3569C122.099 44.9411 124.191 42.5028 128.003 42.5028C131.735 42.5028 133.7 44.8696 133.7 49.3569V64.7169C133.7 67.7825 136.188 70.2763 139.247 70.2763C142.306 70.2763 144.794 67.7825 144.794 64.7169V46.1324C144.786 37.4914 140.063 32.329 132.147 32.329ZM164.003 32.5992C159.486 32.5992 155.904 33.1869 152.394 34.5053C150.571 35.1883 149.351 36.9515 149.351 38.8893C149.351 41.4785 151.403 43.5037 154.026 43.5037C154.565 43.5037 155.017 43.4243 155.635 43.2178C157.766 42.5506 160.017 42.233 162.529 42.233C168.488 42.233 169.756 45.5289 169.771 48.3166C167.703 47.6415 165.096 47.022 161.459 47.022C151.982 47.022 146.546 51.3664 146.546 58.9511V59.0861C146.546 65.9401 151.681 70.5465 159.32 70.5465C163.622 70.5465 167.069 69.2361 169.819 66.5517C170.287 68.5133 172.165 70.2844 175.049 70.2844C178.084 70.2844 180.461 67.9336 180.461 64.9315V48.5469C180.461 43.3925 179.114 39.4215 176.444 36.7529C173.686 33.997 169.502 32.5992 164.003 32.5992ZM162.394 62.5806C159.248 62.5806 157.299 61.0875 157.299 58.681V58.546C157.299 55.6789 159.692 54.0429 163.868 54.0429C166.007 54.0429 168.139 54.4638 169.906 55.2262V56.7432C169.906 60.1741 166.816 62.5806 162.394 62.5806ZM195.327 37.3727C198.195 33.9814 201.729 32.3295 206.103 32.3295C214.448 32.3295 222.887 38.8658 222.887 51.3667V51.5017C222.887 57.2597 221.12 62.1361 217.784 65.6148C214.733 68.7996 210.588 70.5468 206.103 70.5468C201.785 70.5468 198.354 69.0696 195.382 65.9245V75.455C195.382 78.5207 192.894 81.0145 189.835 81.0145C186.776 81.0145 184.288 78.5207 184.288 75.455V38.159C184.288 35.0933 186.776 32.5995 189.835 32.5995C192.632 32.5995 194.946 34.6803 195.327 37.3727ZM211.801 51.3667C211.801 45.974 208.227 41.8997 203.488 41.8997C198.718 41.8997 195.247 45.8787 195.247 51.3667V51.5017C195.247 56.9897 198.71 60.9687 203.488 60.9687C208.306 60.9687 211.801 56.9897 211.801 51.5017V51.3667ZM247.261 32.3295C242.887 32.3295 239.353 33.9814 236.484 37.3727C236.104 34.6803 233.79 32.5995 230.993 32.5995C227.934 32.5995 225.446 35.0933 225.446 38.159V75.455C225.446 78.5207 227.934 81.0145 230.993 81.0145C234.052 81.0145 236.54 78.5207 236.54 75.455V65.9245C239.511 69.0696 242.943 70.5468 247.261 70.5468C251.746 70.5468 255.891 68.7996 258.941 65.6148C262.277 62.1361 264.045 57.2597 264.045 51.5017V51.3667C264.045 38.8658 255.605 32.3295 247.261 32.3295ZM244.646 41.8997C249.385 41.8997 252.959 45.974 252.959 51.3667V51.5017C252.959 56.9897 249.464 60.9687 244.646 60.9687C239.868 60.9687 236.405 56.9897 236.405 51.5017V51.3667C236.405 45.8787 239.876 41.8997 244.646 41.8997ZM288.792 36.7927C289.822 34.0448 291.66 32.5993 294.109 32.5993C297.065 32.5993 299.386 34.8628 299.378 37.7378C299.378 38.5717 299.109 39.7789 298.871 40.3349L286.359 70.4513C283.213 78.0837 279.933 80.7919 273.823 80.7919C271.668 80.7919 270.012 80.506 268.11 79.823C266.802 79.3465 264.599 78.1075 264.599 75.1689C264.599 72.278 266.874 70.5546 269.069 70.5546C269.94 70.5546 270.463 70.7055 270.883 70.8484C271.747 71.1184 272.222 71.2296 272.88 71.2296C274.544 71.2296 275.241 70.9596 276.081 69.3474L276.335 68.7438L264.163 40.4778C263.886 39.7789 263.593 38.6988 263.593 37.9443C263.593 34.8946 265.946 32.5914 269.069 32.5914C271.644 32.5914 273.387 33.9415 274.386 36.7212L281.715 56.4732L288.792 36.7927Z" fill="#05C6C8"/>
<path d="M80.5351 27.3463V59.8313C80.5351 72.7245 70.0421 83.1776 57.0997 83.1776H54.7293L42.6244 95.2286C42.1503 95.7009 41.4945 96 40.7676 96C40.096 96 39.4875 95.756 39.0214 95.3467L38.8159 95.142L38.808 95.1342L26.8059 83.1776H24.4275C11.493 83.1776 1 72.7245 1 59.8313V27.3463C1 14.4531 11.493 4 24.4354 4H57.0997C70.0421 4 80.5351 14.4531 80.5351 27.3463Z" fill="#FFD666"/>
<path d="M19.5181 49.0017C17.2109 49.0017 15.8959 51.6207 17.2345 53.5119C22.4396 60.8785 31.0464 65.6815 40.7714 65.6815C50.4964 65.6815 59.0954 60.8706 64.3004 53.5119C65.6391 51.6207 64.324 49.0017 62.0168 49.0017H19.5181Z" fill="white"/>
<path d="M33.031 37.8533H19.1089V30.8585C19.1089 26.9972 22.2272 23.8638 26.0699 23.8638C29.9127 23.8638 33.031 26.9972 33.031 30.8585V37.8533Z" fill="white"/>
<path d="M62.4347 37.8533H48.5126V30.8585C48.5126 26.9972 51.6309 23.8638 55.4736 23.8638C59.3164 23.8638 62.4347 26.9972 62.4347 30.8585V37.8533Z" fill="white"/>
</svg>
